#!OML:ASF F:\VICON\USERDATA\INSTALL\rory3\rory3.ASF
:FULLY-SPECIFIED
:DEGREES
3000
root -0.0357576 15.5466 -0.488759 -5.93044 36.7416 4.14778
lowerback 12.1963 2.81051 14.275
upperback -1.49032 7.29033 12.5379
thorax -8.6198 3.33925 4.35914
lowerneck -12.8547 -0.991497 -3.53391
upperneck 8.25998 -1.52273 7.468
head 4.66313 -0.377389 2.78124
rclavicle -1.51076e-014 2.54444e-014
rhumerus 27.2487 22.302 -74.9985
rradius 71.3114
rwrist 19.9982
rhand 26.4855 9.58995
rfingers 7.12502
rthumb 50.5214 -11.3547
lclavicle -1.51076e-014 2.54444e-014
lhumerus 25.8398 38.3334 28.6885
lradius 87.2765
lwrist 19.9357
lhand 8.59191 33.2775
lfingers 7.12502
lthumb 33.7896 60.1077
rfemur 3.05631 -11.828 12.5001
rtibia 34.7085
rfoot -25.6119 -23.3095
rtoes -5.29423
lfemur -9.03913 -15.2045 -22.7235
ltibia 29.235
lfoot -3.33822 -13.4613
ltoes 5.00303
3001
root -0.0727901 15.5403 -0.510543 -5.86258 36.6068 3.87831
lowerback 12.5706 2.73575 14.0542
upperback -1.19517 7.18286 12.5225
thorax -8.52384 3.30501 4.45446
lowerneck -12.81 -0.946358 -3.7395
upperneck 8.22778 -1.41037 7.31794
head 4.63881 -0.341063 2.77621
rclavicle 8.11041e-014 4.77083e-014
rhumerus 27.5756 21.595 -74.9609
rradius 71.26
rwrist 20.279
rhand 26.5506 9.51245
rfingers 7.12502
rthumb 50.5809 -11.3999
lclavicle 8.11041e-014 4.77083e-014
lhumerus 25.8573 38.2976 28.9321
lradius 87.253
lwrist 19.974
lhand 8.73683 33.3012
lfingers 7.12502
lthumb 33.9273 60.1011
rfemur 2.342 -12.1281 12.7897
rtibia 35.2028
rfoot -25.5828 -23.0677
rtoes -5.37622
lfemur -9.66632 -15.3377 -22.3277
ltibia 29.6469
lfoot -3.52972 -13.2997
ltoes 4.09746
3002
root -0.109487 15.5351 -0.53019 -5.79217 36.4707 3.65148
lowerback 13.0351 2.63024 13.8349
upperback -0.963608 7.0574 12.4292
thorax -8.53996 3.25087 4.46257
lowerneck -12.6586 -0.886532 -3.76244
upperneck 8.23923 -1.3083 7.10854
head 4.6095 -0.308577 2.72184
rclavicle -5.64548e-014 -4.45278e-014
rhumerus 27.7084 20.8851 -75.1946
rradius 71.2048
rwrist 20.5998
rhand 26.5789 9.55382
rfingers 7.12502
rthumb 50.6067 -11.3445
lclavicle -5.64548e-014 -4.45278e-014
lhumerus 25.8016 38.1328 29.1115
lradius 87.2756
lwrist 19.9819
lhand 8.9814 33.1261
lfingers 7.12502
lthumb 34.1596 59.8743
rfemur 1.6484 -12.4299 13.0441
rtibia 35.7339
rfoot -25.4841 -22.8855
rtoes -5.92226
lfemur -10.2395 -15.4278 -21.9632
ltibia 30.0091
lfoot -3.69246 -13.1305
ltoes 3.49744
3003
root -0.147162 15.53 -0.55163 -5.6319 36.2948 3.55261
lowerback 13.5877 2.54427 13.5522
upperback -0.749822 6.96191 12.2846
thorax -8.62495 3.20739 4.43871
lowerneck -12.6081 -0.809884 -3.69842
upperneck 8.36513 -1.19229 6.80856
head 4.63041 -0.268877 2.62696
rclavicle 2.8625e-014 -2.8625e-014
rhumerus 27.7631 20.1541 -75.5749
rradius 71.1265
rwrist 21.1456
rhand 26.6124 9.72116
rfingers 7.12502
rthumb 50.6373 -11.1604
lclavicle 2.8625e-014 -2.8625e-014
lhumerus 25.7054 37.9251 29.3086
lradius 87.3597
lwrist 19.9962
lhand 9.14746 33.1088
lfingers 7.12502
lthumb 34.3173 59.8216
rfemur 0.902928 -12.6561 13.211
rtibia 36.3083
rfoot -25.4595 -22.6814
rtoes -6.2305
lfemur -10.8063 -15.5217 -21.6976
ltibia 30.3083
lfoot -3.76182 -12.9424
ltoes 3.03612
3004
root -0.183657 15.5235 -0.575338 -5.35949 36.0978 3.64371
lowerback 14.2082 2.52204 13.1862
upperback -0.548655 6.94539 12.1017
thorax -8.76498 3.2007 4.39917
lowerneck -12.6271 -0.833584 -3.92532
upperneck 8.59701 -1.18933 6.74396
head 4.70522 -0.276873 2.64581
rclavicle -9.93923e-014 3.81667e-014
rhumerus 27.7919 19.388 -75.8091
rradius 71.0972
rwrist 21.8123
rhand 26.5851 9.91931
rfingers 7.12502
rthumb 50.6123 -10.9759
lclavicle -9.93923e-014 3.81667e-014
lhumerus 25.606 37.588 29.4431
lradius 87.4298
lwrist 20.0424
lhand 8.98988 33.1701
lfingers 7.12502
lthumb 34.1677 59.9165
rfemur 0.11628 -12.9169 13.1764
rtibia 36.9448
rfoot -25.4846 -22.3749
rtoes -6.32601
lfemur -11.3289 -15.63 -21.6114
ltibia 30.5313
lfoot -3.7697 -12.6964
ltoes 2.70182
3005
root -0.218694 15.515 -0.599205 -4.93403 35.9598 3.9223
lowerback 14.7155 2.48054 12.6701
upperback -0.328327 6.83791 11.8739
thorax -8.82624 3.15946 4.41459
lowerneck -12.6856 -0.875808 -4.1528
upperneck 8.93328 -1.22408 6.76852
head 4.82179 -0.296055 2.69077
rclavicle 1.90833e-014 -9.54166e-015
rhumerus 27.9744 18.8783 -75.7942
rradius 71.144
rwrist 22.2819
rhand 26.5414 9.93924
rfingers 7.12502
rthumb 50.5724 -10.9777
lclavicle 1.90833e-014 -9.54166e-015
lhumerus 25.5088 37.3199 29.5147
lradius 87.4472
lwrist 19.9525
lhand 8.93504 33.295
lfingers 7.12502
lthumb 34.1156 60.053
rfemur -0.720887 -13.253 12.9496
rtibia 37.634
rfoot -25.5135 -22.0128
rtoes -6.70936
lfemur -11.8769 -15.7739 -21.6926
ltibia 30.7251
lfoot -3.84235 -12.3788
ltoes 2.22496
3006
root -0.255582 15.5062 -0.62435 -4.59423 35.7997 4.12256
lowerback 15.2479 2.40579 12.1579
upperback -0.0925039 6.69039 11.6829
thorax -8.88925 3.10122 4.48054
lowerneck -12.6009 -0.848725 -4.20533
upperneck 9.12055 -1.17228 6.61419
head 4.86159 -0.282872 2.65611
rclavicle -6.79844e-014 -5.40694e-014
rhumerus 28.1956 18.6267 -75.6133
rradius 71.2661
rwrist 22.653
rhand 26.3941 9.76203
rfingers 7.12502
rthumb 50.4379 -11.2277
lclavicle -6.79844e-014 -5.40694e-014
lhumerus 25.3313 37.1882 29.5472
lradius 87.4491
lwrist 19.829
lhand 9.11584 33.2342
lfingers 7.12502
lthumb 34.2873 59.9537
rfemur -1.53559 -13.5511 12.8169
rtibia 38.321
rfoot -25.5009 -21.7206
rtoes -7.15898
lfemur -12.3933 -15.8885 -21.6904
ltibia 30.9266
lfoot -3.89715 -12.138
ltoes 2.02736
3007
root -0.295665 15.4959 -0.652408 -4.42286 35.5497 4.12345
lowerback 15.8825 2.33794 11.8135
upperback 0.175908 6.59765 11.5292
thorax -8.96134 3.06287 4.48484
lowerneck -12.5505 -0.800474 -4.26476
upperneck 9.21382 -1.08312 6.442
head 4.87595 -0.253331 2.61925
rclavicle -7.23576e-014 4.13472e-014
rhumerus 28.4418 18.3931 -75.4224
rradius 71.3904
rwrist 22.9779
rhand 26.3302 9.73015
rfingers 7.12502
rthumb 50.3796 -11.291
lclavicle -7.23576e-014 4.13472e-014
lhumerus 25.1615 37.1231 29.5894
lradius 87.4497
lwrist 19.893
lhand 9.11203 33.1869
lfingers 7.12502
lthumb 34.2836 59.9072
rfemur -2.34296 -13.7088 12.9182
rtibia 38.9991
rfoot -25.5441 -21.4562
rtoes -7.03254
lfemur -12.8843 -15.9494 -21.4987
ltibia 31.1362
lfoot -3.85874 -11.9201
ltoes 2.0432
3008
root -0.33207 15.4862 -0.680038 -4.29217 35.3754 4.06219
lowerback 16.4196 2.24865 11.5656
upperback 0.498383 6.46346 11.3843
thorax -8.90614 3.00677 4.46127
lowerneck -12.6034 -0.733974 -4.35343
upperneck 9.23261 -0.96195 6.30646
head 4.88314 -0.20579 2.60091
rclavicle -1.33186e-014 8.26944e-014
rhumerus 28.8281 18.2084 -75.0632
rradius 71.4952
rwrist 23.0891
rhand 26.2487 9.81912
rfingers 7.12502
rthumb 50.3051 -11.2419
lclavicle -1.33186e-014 8.26944e-014
lhumerus 24.9932 37.0999 29.6449
lradius 87.4976
lwrist 20.0092
lhand 8.99259 33.2512
lfingers 7.12502
lthumb 34.1702 59.997
rfemur -3.08448 -13.9244 13.0441
rtibia 39.6295
rfoot -25.5872 -21.182
rtoes -6.89149
lfemur -13.383 -16.0391 -21.2781
ltibia 31.3757
lfoot -3.7949 -11.7894
ltoes 1.98986
3009
root -0.367103 15.4774 -0.704997 -4.00981 35.198 4.27907
lowerback 16.8692 2.20669 11.0617
upperback 0.858938 6.30885 11.1813
thorax -8.77439 2.95258 4.52102
lowerneck -12.6332 -0.731606 -4.4113
upperneck 9.29513 -0.935505 6.17865
head 4.90535 -0.202893 2.57283
rclavicle 7.33515e-014 6.36111e-014
rhumerus 29.2772 18.085 -74.6193
rradius 71.5937
rwrist 23.0385
rhand 26.1696 9.89378
rfingers 7.12502
rthumb 50.2328 -11.2059
lclavicle 7.33515e-014 6.36111e-014
lhumerus 24.8816 37.0846 29.7066
lradius 87.5144
lwrist 20.0391
lhand 9.04995 33.2893
lfingers 7.12502
lthumb 34.2247 60.0229
rfemur -3.81528 -14.1211 12.9042
rtibia 40.2594
rfoot -25.546 -20.8937
rtoes -7.10305
lfemur -13.8551 -16.0726 -21.311
ltibia 31.6119
lfoot -3.81541 -11.6422
ltoes 1.42225
3010
root -0.40164 15.4674 -0.733816 -3.78742 34.941 4.37517
lowerback 17.3913 2.16294 10.7025
upperback 1.17426 6.2003 10.9903
thorax -8.72186 2.91038 4.50567
lowerneck -12.5908 -0.781917 -4.55053
upperneck 9.49345 -0.981363 6.12099
head 4.96239 -0.233885 2.57533
rclavicle 2.24627e-014 0
rhumerus 29.6627 18.0365 -74.1824
rradius 71.6387
rwrist 22.9174
rhand 26.0978 9.92057
rfingers 7.12502
rthumb 50.1671 -11.214
lclavicle 2.24627e-014 0
lhumerus 24.7415 37.047 29.7972
lradius 87.4889
lwrist 19.9823
lhand 9.34371 33.4149
lfingers 7.12502
lthumb 34.5036 60.0854
rfemur -4.58321 -14.2219 12.8973
rtibia 40.8946
rfoot -25.5347 -20.6214
rtoes -7.00735
lfemur -14.3364 -15.993 -21.2266
ltibia 31.8478
lfoot -3.83212 -11.5309
ltoes 1.04551
3011
root -0.4331 15.4554 -0.766569 -3.49198 34.6693 4.60417
lowerback 17.8467 2.095 10.3317
upperback 1.5673 6.02367 10.7502
thorax -8.53696 2.83911 4.46156
lowerneck -12.589 -0.776949 -4.66377
upperneck 9.64385 -0.951077 6.0401
head 5.0069 -0.228214 2.57199
rclavicle 2.16178e-014 -4.13472e-014
rhumerus 30.1864 18.0988 -73.7239
rradius 71.8326
rwrist 22.6007
rhand 26.2188 9.72071
rfingers 7.12502
rthumb 50.2778 -11.355
lclavicle 2.16178e-014 -4.13472e-014
lhumerus 24.6238 37.1474 29.9
lradius 87.4539
lwrist 19.976
lhand 9.38532 33.5537
lfingers 7.12502
lthumb 34.5431 60.2153
rfemur -5.36205 -14.3848 12.7335
rtibia 41.5642
rfoot -25.4687 -20.3149
rtoes -7.26857
lfemur -14.8055 -15.9652 -21.2883
ltibia 32.1044
lfoot -3.87689 -11.4059
ltoes 0.658952
3012
root -0.465998 15.4406 -0.80028 -3.28902 34.3465 4.78242
lowerback 18.2655 2.03495 9.99443
upperback 2.06312 5.8435 10.5277
thorax -8.21526 2.77096 4.42265
lowerneck -12.5957 -0.784272 -4.85911
upperneck 9.75333 -0.927263 6.01407
head 5.04115 -0.22537 2.59858
rclavicle -2.18663e-014 0
rhumerus 30.8433 18.1514 -73.27
rradius 72.0577
rwrist 22.2999
rhand 26.2626 9.60465
rfingers 7.12502
rthumb 50.3178 -11.4496
lclavicle -2.18663e-014 0
lhumerus 24.5464 37.3296 30.0342
lradius 87.4977
lwrist 20.1203
lhand 9.30446 33.6719
lfingers 7.12502
lthumb 34.4663 60.3509
rfemur -6.0893 -14.5283 12.6262
rtibia 42.2658
rfoot -25.4512 -19.8788
rtoes -7.01019
lfemur -15.2373 -15.9227 -21.3014
ltibia 32.3752
lfoot -3.91808 -11.243
ltoes 0.66216
